<svg xmlns="http://www.w3.org/2000/svg" xmlns:xlink="http://www.w3.org/1999/xlink" width="50" height="50" viewBox="0 0 50 50">
  <defs>
    <clipPath id="clip-path">
      <circle id="Ellipse_13" data-name="Ellipse 13" cx="25" cy="25" r="25" transform="translate(351 4510)" fill="#fff"/>
    </clipPath>
  </defs>
  <g id="Mask_Group_5" data-name="Mask Group 5" transform="translate(-351 -4510)" clip-path="url(#clip-path)">
    <path id="universal-access-solid" d="M25.806,4.839A20.968,20.968,0,1,1,4.839,25.806,20.957,20.957,0,0,1,25.806,4.839m0-4.032a25,25,0,1,0,25,25A25,25,0,0,0,25.806.806Zm0,5.645A19.355,19.355,0,1,0,45.161,25.806,19.355,19.355,0,0,0,25.806,6.452Zm0,4.435a3.629,3.629,0,1,1-3.629,3.629A3.629,3.629,0,0,1,25.806,10.887Zm11.869,9.881a72.151,72.151,0,0,1-8.28,1.593c.086,10.184,1.241,12.4,2.524,15.688a1.815,1.815,0,0,1-3.38,1.32,28.935,28.935,0,0,1-2.244-7.918h-.976a28.927,28.927,0,0,1-2.244,7.918,1.814,1.814,0,0,1-3.38-1.32c1.282-3.28,2.438-5.5,2.524-15.688a72.114,72.114,0,0,1-8.28-1.593,1.613,1.613,0,1,1,.741-3.14c9.747,2.3,12.529,2.3,22.256,0a1.613,1.613,0,1,1,.741,3.14Z" transform="translate(350.194 4509.193)" fill="#0056a8"/>
  </g>
</svg>
