<?xml version="1.0" encoding="utf-8"?>
<!-- Generator: Adobe Illustrator 24.2.1, SVG Export Plug-In . SVG Version: 6.00 Build 0)  -->
<svg version="1.1" id="Layer_10" xmlns="http://www.w3.org/2000/svg" xmlns:xlink="http://www.w3.org/1999/xlink" x="0px" y="0px"
	 viewBox="0 0 64 64" style="enable-background:new 0 0 64 64;" xml:space="preserve">
<path d="M32.1,1C15.2,1,1.5,14.7,1.5,31.6c0,16.9,13.7,30.6,30.6,30.6s30.6-13.7,30.6-30.6C62.7,14.7,48.9,1,32.1,1z M34.1,58V18.7
	l17.6,15.6c0.4,0.3,0.9,0.5,1.4,0.5c0.6,0,1.1-0.3,1.5-0.7c0.3-0.4,0.5-0.9,0.5-1.4c0-0.6-0.3-1.1-0.7-1.5l-21-18.6
	c-0.4-0.3-0.9-0.5-1.4-0.5c-0.5,0-1,0.2-1.4,0.5l-21,18.6c-0.8,0.7-0.9,2-0.2,2.9c0.4,0.4,0.9,0.7,1.5,0.7c0.5,0,1-0.2,1.4-0.5
	L30,18.7V58C16.3,56.9,5.6,45.5,5.6,31.6C5.6,17,17.5,5.1,32.1,5.1S58.6,17,58.6,31.6C58.6,45.5,47.9,56.9,34.1,58z"/>
</svg>
