<?xml version="1.0" encoding="utf-8"?>
<!-- Generator: Adobe Illustrator 24.2.1, SVG Export Plug-In . SVG Version: 6.00 Build 0)  -->
<svg version="1.1" id="Layer_10" xmlns="http://www.w3.org/2000/svg" xmlns:xlink="http://www.w3.org/1999/xlink" x="0px" y="0px"
	 viewBox="0 0 64 64" style="enable-background:new 0 0 64 64;" xml:space="preserve">
<g>
	<path d="M23.8,43.6c-4,0-7.2,3.2-7.2,7.2c0,4,3.2,7.2,7.2,7.2c4,0,7.2-3.2,7.2-7.2C31,46.9,27.8,43.6,23.8,43.6z M23.8,53.7
		c-1.6,0-2.8-1.3-2.8-2.8c0-1.6,1.3-2.8,2.8-2.8c1.6,0,2.8,1.3,2.8,2.8C26.6,52.4,25.3,53.7,23.8,53.7z"/>
	<path d="M45.1,43.6c-4,0-7.2,3.2-7.2,7.2c0,4,3.2,7.2,7.2,7.2c4,0,7.2-3.2,7.2-7.2C52.3,46.9,49.1,43.6,45.1,43.6z M45.1,53.7
		c-1.6,0-2.8-1.3-2.8-2.8c0-1.6,1.3-2.8,2.8-2.8c1.6,0,2.8,1.3,2.8,2.8C47.9,52.4,46.6,53.7,45.1,53.7z"/>
	<path d="M60.8,13.7c-0.4-0.5-1-0.8-1.7-0.8H12.9l-1-4.9c-0.1-1.1-1-2-2.2-2H3.2C2,5.9,1,6.9,1,8.1s1,2.2,2.2,2.2H8l1,5l0,0.2
		l5,25.9c0.2,1,1.1,1.8,2.2,1.8h37.3c1,0,1.9-0.7,2.1-1.7l5.6-25.8C61.4,14.9,61.2,14.2,60.8,13.7z M18,38.7l-4.2-21.4h42.5
		l-4.7,21.4H18z"/>
</g>
</svg>
