<?xml version="1.0" encoding="utf-8"?>
<!-- Generator: Adobe Illustrator 24.3.0, SVG Export Plug-In . SVG Version: 6.00 Build 0)  -->
<svg version="1.1" id="Layer_10" xmlns="http://www.w3.org/2000/svg" xmlns:xlink="http://www.w3.org/1999/xlink" x="0px" y="0px"
	 viewBox="0 0 64 64" style="enable-background:new 0 0 64 64;" xml:space="preserve">
<path id="Google_x2B__2_" d="M33.6,50.9c0-0.5-0.1-1-0.2-1.5c-0.1-0.5-0.2-0.9-0.3-1.3c-0.1-0.4-0.4-0.8-0.7-1.3
	c-0.3-0.5-0.6-0.8-0.8-1.1c-0.2-0.3-0.6-0.7-1-1.1c-0.5-0.4-0.8-0.7-1-1c-0.3-0.2-0.7-0.5-1.2-1c-0.6-0.4-0.9-0.7-1.1-0.8
	c-0.2-0.2-0.6-0.5-1.3-0.9c-0.6-0.4-1-0.7-1.1-0.8c-0.4-0.1-1-0.1-1.9-0.1c-1.4,0-2.7,0.1-4,0.3c-1.3,0.2-2.7,0.5-4,0.9
	c-1.4,0.4-2.6,1-3.7,1.7c-1,0.7-1.9,1.6-2.5,2.8c-0.7,1.2-1,2.5-1,4c0,1.7,0.4,3.2,1.3,4.5c0.9,1.3,2,2.4,3.5,3.1
	c1.4,0.7,2.9,1.3,4.5,1.7c1.5,0.4,3.2,0.6,4.7,0.6c1.4,0,2.9-0.2,4.2-0.5c1.3-0.3,2.6-0.8,3.8-1.5c1.2-0.7,2.1-1.6,2.8-2.8
	C33.3,53.9,33.6,52.5,33.6,50.9 M29.2,18.7c0-1.5-0.2-3.1-0.6-4.8c-0.4-1.7-1-3.3-1.8-4.9C26,7.5,25,6.2,23.6,5.2
	c-1.3-1-2.8-1.5-4.5-1.5c-2.3,0-4.1,0.9-5.4,2.6c-1.3,1.7-1.9,3.8-1.9,6.2c0,1.2,0.2,2.4,0.4,3.7c0.3,1.3,0.7,2.6,1.3,3.9
	c0.6,1.3,1.3,2.5,2.1,3.5c0.8,1,1.8,1.9,2.9,2.5c1.1,0.6,2.4,1,3.7,1c2.4,0,4.1-0.7,5.2-2.3C28.6,23.2,29.2,21.2,29.2,18.7 M24.3,1
	h16.3l-5,3h-5.1c1.8,1.1,3.2,2.7,4.1,4.7c1,2,1.4,4.1,1.4,6.3c0,1.8-0.3,3.5-0.8,4.9c-0.6,1.4-1.3,2.6-2.1,3.4
	c-0.8,0.9-1.7,1.7-2.5,2.4c-0.8,0.7-1.5,1.5-2.1,2.3c-0.6,0.8-0.9,1.6-0.9,2.5c0,0.6,0.2,1.3,0.6,1.9c0.4,0.6,1,1.2,1.6,1.8
	c0.7,0.6,1.4,1.2,2.2,1.8c0.8,0.6,1.6,1.3,2.4,2.1c0.8,0.8,1.5,1.6,2.2,2.5c0.7,0.9,1.2,2,1.6,3.2c0.4,1.2,0.6,2.6,0.6,4
	c0,4-1.7,7.5-5.2,10.5c-3.8,3.3-9,4.9-15.7,4.9c-1.4,0-3-0.1-4.5-0.4c-1.5-0.2-3-0.7-4.5-1.3c-1.5-0.6-2.9-1.3-4.1-2.2
	c-1.1-0.8-2.1-2-2.8-3.3c-0.8-1.4-1.1-2.9-1.1-4.5c0-1.5,0.4-3.2,1.4-5c0.8-1.6,2-3,3.6-4.1c1.6-1.2,3.4-2,5.4-2.7
	c2-0.6,4-1.1,5.8-1.3c1.8-0.3,3.7-0.5,5.6-0.5c-1.6-2.1-2.4-3.9-2.4-5.6c0-0.3,0-0.6,0.1-0.9c0-0.3,0.1-0.5,0.2-0.7
	c0.1-0.2,0.2-0.5,0.3-0.8c0.1-0.3,0.2-0.6,0.3-0.8c-1,0.1-1.8,0.2-2.6,0.2c-3.7,0-6.9-1.2-9.5-3.7c-2.6-2.4-4-5.5-4-9.2
	C5,12.9,6.2,9.8,8.6,7c2.3-2.7,5.2-4.5,8.7-5.3C19.6,1.2,22,1,24.3,1 M63.1,10.5v4.8h-9.6v9.6h-4.8v-9.6h-9.5v-4.8h9.5V1h4.8v9.5
	H63.1z"/>
</svg>
