<svg xmlns="http://www.w3.org/2000/svg" xmlns:xlink="http://www.w3.org/1999/xlink" width="36" height="36" viewBox="0 0 36 36">
  <defs>
    <linearGradient id="instagram-linear-gradient" x1="0.5" y1="0.995" x2="0.5" y2="0.068" gradientUnits="objectBoundingBox">
      <stop offset="0" stop-color="#e09b3d"/>
      <stop offset="0.24" stop-color="#c74c4d"/>
      <stop offset="0.65" stop-color="#c21975"/>
      <stop offset="1" stop-color="#7024c4"/>
    </linearGradient>
  </defs>
  <g>
    <circle cx="18" cy="18" r="18" fill="url(#instagram-linear-gradient)"/>
    <g transform="translate(5.999 5.999)">
      <path d="M54.677,38h-9.6A7.085,7.085,0,0,0,38,45.076v9.6a7.085,7.085,0,0,0,7.076,7.076h9.6a7.082,7.082,0,0,0,7.076-7.076v-9.6A7.085,7.085,0,0,0,54.677,38Zm4.688,16.677a4.688,4.688,0,0,1-4.688,4.688h-9.6a4.688,4.688,0,0,1-4.688-4.688v-9.6a4.688,4.688,0,0,1,4.688-4.688h9.6a4.688,4.688,0,0,1,4.688,4.688Z" transform="translate(-38 -38)" fill="#fff"/>
      <path d="M62.478,56.35a6.144,6.144,0,1,0,6.141,6.142A6.144,6.144,0,0,0,62.478,56.35Zm0,9.892a3.75,3.75,0,1,1,3.75-3.75A3.75,3.75,0,0,1,62.478,66.242Z" transform="translate(-50.601 -50.615)" fill="#fff"/>
      <circle cx="1.519" cy="1.519" r="1.519" transform="translate(16.536 4.216)" fill="#fff"/>
    </g>
  </g>
</svg>