<?xml version="1.0" encoding="utf-8"?>
<!-- Generator: Adobe Illustrator 24.1.1, SVG Export Plug-In . SVG Version: 6.00 Build 0)  -->
<svg version="1.1" id="Layer_10" xmlns="http://www.w3.org/2000/svg" xmlns:xlink="http://www.w3.org/1999/xlink" x="0px" y="0px"
	 viewBox="0 0 64 64" style="enable-background:new 0 0 64 64;" xml:space="preserve">
<g>
	<path d="M62.3,19.6c-0.2-3.2-0.7-5.4-1.4-7.3c-0.8-2-1.8-3.7-3.5-5.3C55.7,5.2,54,4.2,52,3.4c-1.9-0.7-4.1-1.3-7.3-1.4
		c-3.2-0.1-4.3-0.2-12.4-0.2C24,1.8,23,1.8,19.8,2c-3.2,0.2-5.4,0.7-7.3,1.4c-2,0.8-3.7,1.8-5.3,3.5c-1.7,1.7-2.7,3.4-3.5,5.3
		c-0.7,1.9-1.3,4.1-1.4,7.3C2,22.8,2,23.8,2,32s0,9.2,0.2,12.5c0.2,3.2,0.7,5.4,1.4,7.3c0.8,2,1.8,3.7,3.5,5.3
		c1.7,1.7,3.4,2.7,5.3,3.5c1.9,0.7,4.1,1.3,7.3,1.4c3.2,0.2,4.3,0.2,12.5,0.2s9.2,0,12.5-0.2c3.2-0.2,5.4-0.7,7.3-1.4
		c2-0.8,3.7-1.8,5.3-3.5c1.7-1.7,2.7-3.4,3.5-5.3c0.7-1.9,1.3-4.1,1.4-7.3c0.2-3.2,0.2-4.3,0.2-12.5S62.4,22.8,62.3,19.6z
		 M56.8,44.2c-0.1,2.9-0.6,4.5-1,5.6c-0.6,1.4-1.2,2.4-2.3,3.5c-1.1,1.1-2.1,1.7-3.5,2.3c-1.1,0.4-2.7,0.9-5.6,1
		c-3.2,0.2-4.1,0.2-12.2,0.2s-9,0-12.2-0.2c-2.9-0.1-4.5-0.6-5.6-1C13,55,12,54.4,10.9,53.3c-1.1-1.1-1.7-2.1-2.3-3.5
		c-0.4-1.1-0.9-2.7-1-5.6C7.5,41,7.4,40.1,7.4,32c0-8.1,0-9,0.2-12.2c0.1-2.9,0.6-4.5,1-5.6c0.6-1.4,1.2-2.4,2.3-3.5S13,9,14.4,8.5
		c1.1-0.4,2.7-0.9,5.6-1c3.2-0.1,4.1-0.2,12.2-0.2s9,0,12.2,0.2C47.4,7.6,49,8,50,8.5c1.4,0.6,2.4,1.2,3.5,2.3
		c1.1,1.1,1.7,2.1,2.3,3.5c0.4,1.1,0.9,2.7,1,5.6C57,23,57,24,57,32C57,40.1,57,41,56.8,44.2z"/>
	<path d="M32.2,16.5c-8.6,0-15.5,6.9-15.5,15.5c0,8.6,6.9,15.5,15.5,15.5S47.7,40.6,47.7,32C47.7,23.4,40.8,16.5,32.2,16.5z
		 M32.2,42.1c-5.6,0-10.1-4.5-10.1-10.1s4.5-10.1,10.1-10.1S42.3,26.4,42.3,32S37.8,42.1,32.2,42.1z"/>
	<path d="M48.3,12.3c-2,0-3.6,1.6-3.6,3.6c0,2,1.6,3.6,3.6,3.6c2,0,3.6-1.6,3.6-3.6C52,13.9,50.3,12.3,48.3,12.3z"/>
</g>
</svg>
