<?xml version="1.0" encoding="utf-8"?>
<!-- Generator: Adobe Illustrator 24.1.1, SVG Export Plug-In . SVG Version: 6.00 Build 0)  -->
<svg version="1.1" id="Layer_10" xmlns="http://www.w3.org/2000/svg" xmlns:xlink="http://www.w3.org/1999/xlink" x="0px" y="0px"
	 viewBox="0 0 64 64" style="enable-background:new 0 0 64 64;" xml:space="preserve">
<path id="LinkedIn_2_" d="M62,38.8V61H49.2V40.3c0-5.2-1.9-8.8-6.5-8.8c-3.6,0-5.7,2.4-6.6,4.7c-0.3,0.8-0.4,2-0.4,3.1V61H22.8
	c0,0,0.2-35.1,0-38.7h12.9v5.5c0,0-0.1,0.1-0.1,0.1h0.1v-0.1c1.7-2.6,4.8-6.4,11.6-6.4C55.7,21.3,62,26.9,62,38.8z M9.3,3.6
	C4.9,3.6,2,6.5,2,10.3C2,14,4.8,17,9.1,17h0.1c4.5,0,7.3-3,7.3-6.7C16.4,6.5,13.7,3.6,9.3,3.6z M2.8,61h12.9V22.3H2.8V61z"/>
</svg>
