<?xml version="1.0" encoding="utf-8"?>
<!-- Generator: Adobe Illustrator 24.2.1, SVG Export Plug-In . SVG Version: 6.00 Build 0)  -->
<svg version="1.1" id="Layer_10" xmlns="http://www.w3.org/2000/svg" xmlns:xlink="http://www.w3.org/1999/xlink" x="0px" y="0px"
	 viewBox="0 0 64 64" style="enable-background:new 0 0 64 64;" xml:space="preserve">
<path d="M10.5,15H5.6C3.1,15,1,13,1,10.4V5.6C1,3,3.1,0.9,5.6,0.9h4.9c2.5,0,4.6,2.1,4.6,4.6v4.9C15.1,13,13,15,10.5,15z"/>
<path d="M58,15H29.6C27,15,25,13,25,10.4V5.6C25,3,27,0.9,29.6,0.9H58c2.5,0,4.6,2.1,4.6,4.6v4.9C62.6,13,60.6,15,58,15z"/>
<path d="M10.5,39.1H5.6C3.1,39.1,1,37,1,34.4v-4.9c0-2.5,2.1-4.6,4.6-4.6h4.9c2.5,0,4.6,2.1,4.6,4.6v4.9C15.1,37,13,39.1,10.5,39.1z
	"/>
<path d="M58,39.1H29.6C27,39.1,25,37,25,34.4v-4.9c0-2.5,2.1-4.6,4.6-4.6H58c2.5,0,4.6,2.1,4.6,4.6v4.9C62.6,37,60.6,39.1,58,39.1z"
	/>
<path d="M10.5,63.1H5.6C3.1,63.1,1,61,1,58.4v-4.9C1,51,3.1,49,5.6,49h4.9c2.5,0,4.6,2.1,4.6,4.6v4.9C15.1,61,13,63.1,10.5,63.1z"/>
<path d="M58,63.1H29.6C27,63.1,25,61,25,58.4v-4.9C25,51,27,49,29.6,49H58c2.5,0,4.6,2.1,4.6,4.6v4.9C62.6,61,60.6,63.1,58,63.1z"/>
</svg>
