<svg xmlns="http://www.w3.org/2000/svg" width="47.231" height="18.531" viewBox="0 0 47.231 18.531">
  <g transform="translate(0 -155.558)">
    <g transform="translate(20.31 156.542)">
      <path d="M221.9,174.257v5.464H220.17V166.229h4.6a4.146,4.146,0,0,1,2.971,1.165,3.89,3.89,0,0,1,0,5.707,4.139,4.139,0,0,1-2.971,1.147H221.9Zm0-6.367V172.6h2.9a2.314,2.314,0,0,0,1.716-.7,2.274,2.274,0,0,0,.7-1.653A2.406,2.406,0,0,0,224.8,167.9h-2.9Z" transform="translate(-220.17 -166.229)" fill="#383e41"/>
      <path d="M325.227,209.108a4.29,4.29,0,0,1,3.034,1.029,3.653,3.653,0,0,1,1.111,2.818v5.689h-1.653v-1.282h-.072a3.3,3.3,0,0,1-2.863,1.58,3.717,3.717,0,0,1-2.556-.9,2.884,2.884,0,0,1-1.03-2.258,2.727,2.727,0,0,1,1.084-2.276,4.547,4.547,0,0,1,2.89-.849,5.052,5.052,0,0,1,2.538.569v-.4a1.967,1.967,0,0,0-.713-1.535,2.448,2.448,0,0,0-1.68-.632,2.635,2.635,0,0,0-2.294,1.228l-1.526-.957A4.235,4.235,0,0,1,325.227,209.108Zm-2.24,6.7a1.367,1.367,0,0,0,.578,1.129,2.123,2.123,0,0,0,1.346.452,2.75,2.75,0,0,0,1.951-.813,2.55,2.55,0,0,0,.858-1.905,3.572,3.572,0,0,0-2.258-.641,2.963,2.963,0,0,0-1.761.506A1.542,1.542,0,0,0,322.987,215.809Z" transform="translate(-311.879 -205.153)" fill="#383e41"/>
      <path d="M421.178,212.338l-5.78,13.293h-1.788l2.149-4.651-3.811-8.642h1.887l2.745,6.629h.036l2.673-6.629Z" transform="translate(-394.258 -208.085)" fill="#383e41"/>
    </g>
    <path d="M91.117,223.684H83.849v2.98h4.186a3.585,3.585,0,0,1-1.553,2.4h0l-.075,1.781,2.567.151h0a7.574,7.574,0,0,0,2.288-5.688A9.136,9.136,0,0,0,91.117,223.684Z" transform="translate(-76.114 -61.842)" fill="#0085f7"/>
    <path d="M18.468,254.563h0a4.688,4.688,0,0,1-6.974-2.452h0l-2.143-.339-.427,2.333a7.737,7.737,0,0,0,6.914,4.26,7.379,7.379,0,0,0,5.122-1.869h0Z" transform="translate(-8.1 -87.339)" fill="#00a94b"/>
    <path d="M3.151,205.219a4.664,4.664,0,0,1,.242-1.48l-.669-1.994H.823a7.747,7.747,0,0,0,0,6.948h0l2.57-1.994h0A4.663,4.663,0,0,1,3.151,205.219Z" transform="translate(0 -41.926)" fill="#fb0"/>
    <path d="M15.832,155.558a7.738,7.738,0,0,0-6.914,4.261l2.57,1.994a4.628,4.628,0,0,1,4.344-3.193,4.2,4.2,0,0,1,2.968,1.16l2.208-2.206A7.432,7.432,0,0,0,15.832,155.558Z" transform="translate(-8.095)" fill="#ff4031"/>
  </g>
</svg>