<svg xmlns="http://www.w3.org/2000/svg" width="37.44" height="24" viewBox="0 0 37.44 24">
  <path d="M1.92,0h33.6a1.92,1.92,0,0,1,1.92,1.92V22.08A1.92,1.92,0,0,1,35.52,24H1.92A1.92,1.92,0,0,1,0,22.08V1.92A1.92,1.92,0,0,1,1.92,0Z" fill="#16366f"/>
  <path d="M107.232,79.116A8.616,8.616,0,1,1,98.616,70.5a8.616,8.616,0,0,1,8.616,8.616" transform="translate(-85.68 -67.116)" fill="#d9222a"/>
  <path d="M343.445,70.5a8.584,8.584,0,0,0-5.784,2.23,8.755,8.755,0,0,0-.87.912h1.741a8.732,8.732,0,0,1,.657.913h-3.055a8.593,8.593,0,0,0-.5.912h4.047a8.6,8.6,0,0,1,.365.912h-4.777a8.5,8.5,0,0,0-.25.912H340.3a8.663,8.663,0,0,1-.25,4.561h-4.777a8.515,8.515,0,0,0,.365.912h4.047a8.64,8.64,0,0,1-.5.913h-3.054a8.717,8.717,0,0,0,.657.912h1.74a8.608,8.608,0,0,1-.87.913,8.616,8.616,0,1,0,5.784-15" transform="translate(-318.942 -67.112)" fill="#ee9f2d"/>
  <path d="M128.562,213.249a.278.278,0,1,1,.278.278A.278.278,0,0,1,128.562,213.249Zm.278.212a.211.211,0,1,0,0-.423h0a.211.211,0,0,0-.211.211h0a.211.211,0,0,0,.211.212Zm-.038-.089h-.057v-.245h.1a.111.111,0,0,1,.063.012.074.074,0,0,1,.031.061.067.067,0,0,1-.042.063l.045.108h-.063l-.037-.1H128.8v.1Zm0-.139h.032a.071.071,0,0,0,.035,0,.033.033,0,0,0,.014-.028.03.03,0,0,0-.014-.025.072.072,0,0,0-.036,0h-.03Zm-21.288-3.843a1.563,1.563,0,0,0-.209-.014c-.53,0-.8.182-.8.541a.327.327,0,0,0,.335.362C107.223,210.278,107.5,209.915,107.514,209.39Zm.68,1.584h-.775l.018-.368a1.173,1.173,0,0,1-.98.43.874.874,0,0,1-.855-.971c0-.865.6-1.37,1.642-1.37a3.174,3.174,0,0,1,.381.027.872.872,0,0,0,.037-.23c0-.236-.163-.323-.6-.323a3.1,3.1,0,0,0-.99.16c.01-.059.13-.8.13-.8a3.732,3.732,0,0,1,1.12-.188c.8,0,1.229.361,1.228,1.042a4.543,4.543,0,0,1-.076.7C108.393,209.6,108.218,210.7,108.195,210.973Zm-2.984,0h-.935l.536-3.36-1.2,3.36h-.637l-.079-3.341-.563,3.341h-.876l.731-4.371h1.345l.082,2.446.82-2.446h1.5l-.723,4.371m17.039-1.584a1.557,1.557,0,0,0-.208-.014c-.53,0-.8.182-.8.541a.326.326,0,0,0,.335.362C121.959,210.278,122.234,209.915,122.25,209.39Zm.681,1.584h-.775l.018-.368a1.173,1.173,0,0,1-.98.43.874.874,0,0,1-.854-.971c0-.865.6-1.37,1.642-1.37a3.167,3.167,0,0,1,.381.027.874.874,0,0,0,.037-.23c0-.236-.163-.323-.6-.323a3.105,3.105,0,0,0-.99.16c.01-.059.13-.8.13-.8a3.73,3.73,0,0,1,1.119-.188c.8,0,1.229.361,1.228,1.042a4.543,4.543,0,0,1-.076.7C123.129,209.6,122.954,210.7,122.931,210.973Zm-10.579-.054a2.135,2.135,0,0,1-.672.115.684.684,0,0,1-.739-.781,8.185,8.185,0,0,1,.128-.947c.054-.332.406-2.425.406-2.425h.93l-.109.538h.562l-.127.854h-.564c-.108.676-.262,1.518-.264,1.63,0,.183.1.263.32.263a.757.757,0,0,0,.252-.034l-.124.787m2.851-.029a3.174,3.174,0,0,1-.954.144,1.413,1.413,0,0,1-1.583-1.586c0-1.215.69-2.109,1.627-2.109a1.188,1.188,0,0,1,1.256,1.286,3.82,3.82,0,0,1-.115.874h-1.852c-.063.516.267.73.808.73a2.2,2.2,0,0,0,.967-.224Zm-.523-2.107c.005-.074.1-.634-.433-.634-.3,0-.508.226-.594.634Zm-5.924-.241a1.037,1.037,0,0,0,.712.992c.379.178.437.231.437.392,0,.222-.167.322-.537.322a2.632,2.632,0,0,1-.838-.14s-.123.783-.129.821a4.314,4.314,0,0,0,.973.105c.987,0,1.443-.376,1.443-1.188a.973.973,0,0,0-.659-.99c-.392-.18-.437-.22-.437-.386,0-.192.155-.29.458-.29a5.128,5.128,0,0,1,.672.053l.133-.824a6.34,6.34,0,0,0-.823-.069c-1.046,0-1.409.547-1.405,1.2m11-1.11a1.785,1.785,0,0,1,.836.236l.153-.949a2.746,2.746,0,0,0-1.028-.37,1.862,1.862,0,0,0-1.527.823c-.543-.18-.766.184-1.04.546l-.243.057a1.793,1.793,0,0,0,.029-.357h-.859c-.117,1.1-.325,2.214-.488,3.316l-.042.239h.936c.156-1.015.242-1.665.294-2.1l.352-.2c.053-.2.217-.262.548-.254a3.982,3.982,0,0,0-.066.729c0,1.163.627,1.887,1.634,1.887a2.934,2.934,0,0,0,.827-.128l.165-1a1.819,1.819,0,0,1-.795.224c-.544,0-.873-.4-.873-1.065,0-.962.489-1.637,1.188-1.637" transform="translate(-96.59 -196.446)"/>
  <path d="M110.815,210.568h-.936l.536-3.359-1.2,3.359h-.638l-.079-3.34-.563,3.34h-.876l.731-4.37h1.345l.038,2.705.907-2.705h1.453l-.723,4.37" transform="translate(-101.925 -196.3)" fill="#fff"/>
  <path d="M559.687,211.6l-.207,1.263a1.17,1.17,0,0,0-.893-.58,1.449,1.449,0,0,0-1.183.884,7.762,7.762,0,0,1-.8-.219v0a5.247,5.247,0,0,0,.041-.535h-.859c-.117,1.1-.325,2.214-.488,3.316l-.043.239h.936q.19-1.231.294-2.042c.32-.289.48-.541.8-.524a3.046,3.046,0,0,0-.227,1.153c0,.889.45,1.475,1.13,1.475a1.1,1.1,0,0,0,.862-.392l-.044.33h.885l.712-4.37Zm-1.17,3.549c-.318,0-.479-.236-.479-.7,0-.7.3-1.194.725-1.194.321,0,.5.245.5.7,0,.7-.306,1.2-.742,1.2Z" transform="translate(-528.606 -201.443)"/>
  <path d="M195.277,206.818a1.568,1.568,0,0,0-.209-.014c-.53,0-.8.182-.8.541a.327.327,0,0,0,.335.362C194.986,207.707,195.261,207.344,195.277,206.818Zm.681,1.583h-.775l.018-.368a1.175,1.175,0,0,1-.98.43.874.874,0,0,1-.855-.971c0-.866.6-1.37,1.642-1.37a3.149,3.149,0,0,1,.381.027.874.874,0,0,0,.037-.231c0-.236-.163-.323-.6-.323a3.124,3.124,0,0,0-.99.159c.01-.059.13-.8.13-.8a3.716,3.716,0,0,1,1.119-.189c.8,0,1.229.361,1.228,1.042a4.581,4.581,0,0,1-.076.7C196.155,207.029,195.981,208.133,195.957,208.4Zm12.546-4.252-.153.949a1.787,1.787,0,0,0-.836-.236c-.7,0-1.188.675-1.188,1.637,0,.663.329,1.065.873,1.065a1.814,1.814,0,0,0,.795-.224l-.164,1a2.914,2.914,0,0,1-.827.128c-1.007,0-1.634-.724-1.634-1.887,0-1.562.867-2.654,2.107-2.654a3.245,3.245,0,0,1,1.028.227m1.509,2.669a1.565,1.565,0,0,0-.209-.014c-.53,0-.8.182-.8.541a.327.327,0,0,0,.335.362C209.722,207.707,210,207.344,210.013,206.818Zm.681,1.583h-.775l.018-.368a1.175,1.175,0,0,1-.98.43.874.874,0,0,1-.855-.971c0-.866.6-1.37,1.642-1.37a3.15,3.15,0,0,1,.381.027.88.88,0,0,0,.037-.231c0-.236-.163-.323-.6-.323a3.125,3.125,0,0,0-.99.159c.01-.059.13-.8.13-.8a3.715,3.715,0,0,1,1.119-.189c.8,0,1.229.361,1.228,1.042a4.515,4.515,0,0,1-.076.7C210.891,207.029,210.717,208.133,210.693,208.4Zm-10.579-.054a2.139,2.139,0,0,1-.672.116.684.684,0,0,1-.739-.781,8.217,8.217,0,0,1,.128-.947c.054-.332.405-2.426.405-2.426h.93l-.108.538h.477l-.127.854h-.479c-.108.676-.262,1.518-.264,1.63,0,.184.1.263.32.263a.758.758,0,0,0,.252-.033l-.124.787m2.851-.028a3.18,3.18,0,0,1-.954.144,1.413,1.413,0,0,1-1.583-1.586c0-1.215.69-2.11,1.627-2.11a1.188,1.188,0,0,1,1.256,1.286,3.829,3.829,0,0,1-.114.874h-1.852c-.063.516.267.731.808.731a2.195,2.195,0,0,0,.967-.224Zm-.523-2.108c.006-.074.1-.634-.433-.634-.3,0-.508.226-.594.634Zm-5.924-.24a1.038,1.038,0,0,0,.712.992c.379.178.437.231.437.392,0,.222-.167.322-.537.322a2.636,2.636,0,0,1-.838-.14s-.123.783-.128.821a4.338,4.338,0,0,0,.973.105c.987,0,1.443-.376,1.443-1.188a.973.973,0,0,0-.659-.991c-.392-.18-.437-.22-.437-.386,0-.192.156-.291.458-.291a5.147,5.147,0,0,1,.672.054l.133-.825a6.335,6.335,0,0,0-.823-.069c-1.047,0-1.409.546-1.406,1.2m19.126,2.43h-.885l.044-.331a1.1,1.1,0,0,1-.862.393c-.68,0-1.129-.586-1.129-1.475,0-1.182.7-2.179,1.522-2.179a1.055,1.055,0,0,1,.893.485l.208-1.263h.923Zm-1.38-.821c.436,0,.742-.494.742-1.2,0-.451-.174-.7-.5-.7-.424,0-.726.5-.726,1.194C213.785,207.345,213.946,207.58,214.264,207.58Zm-2.728-2.733c-.117,1.1-.325,2.214-.488,3.315l-.043.239h.936c.335-2.173.416-2.6.94-2.544a3.493,3.493,0,0,1,.355-1.031c-.392-.082-.611.14-.9.56a3.21,3.21,0,0,0,.056-.539h-.859m-7.7,0c-.117,1.1-.325,2.214-.488,3.315l-.043.239h.936c.334-2.173.415-2.6.939-2.544a3.518,3.518,0,0,1,.355-1.031c-.391-.082-.61.14-.9.56a3.257,3.257,0,0,0,.056-.539h-.859m12.219,3.276a.278.278,0,0,1,.556,0h0a.278.278,0,1,1-.556,0Zm.278.211a.211.211,0,0,0,.211-.211h0a.211.211,0,0,0-.211-.212h0a.211.211,0,1,0,0,.423Zm-.038-.09h-.057V208h.1a.113.113,0,0,1,.062.012.074.074,0,0,1,.031.061.067.067,0,0,1-.043.063l.045.107h-.063l-.037-.1H216.3v.1Zm0-.138h.031a.073.073,0,0,0,.035,0,.033.033,0,0,0,.014-.028.032.032,0,0,0-.014-.025.081.081,0,0,0-.037,0h-.03v.062h0Z" transform="translate(-184.083 -194.134)" fill="#fff"/>
</svg>