<svg xmlns="http://www.w3.org/2000/svg" width="34.801" height="24" viewBox="0 0 34.801 24">
  <g transform="translate(0 -79.451)">
    <path d="M34.8,101.394a2.057,2.057,0,0,1-2.057,2.057H2.057A2.057,2.057,0,0,1,0,101.394V81.508a2.057,2.057,0,0,1,2.057-2.057H32.743A2.057,2.057,0,0,1,34.8,81.508v19.886Z" fill="#e7e8e3"/>
    <path d="M1.557,101.394V81.508a2.127,2.127,0,0,1,2.19-2.057H2.19A2.127,2.127,0,0,0,0,81.508v19.885a2.127,2.127,0,0,0,2.19,2.057H3.747A2.127,2.127,0,0,1,1.557,101.394Z" fill="#202121" opacity="0.15"/>
    <path d="M106,143.37h-3.882a2.854,2.854,0,0,0-3.153,2.856v5.109a.038.038,0,0,0,0,.008,1.713,1.713,0,0,0,1.724,1.124A1.472,1.472,0,0,0,102.3,151.1v-2.551h2.373v2.518c0,1.436-2.041,2.114-3.42,2.12a4.016,4.016,0,0,1-2.193-.623.044.044,0,0,0-.042,0h0a.044.044,0,0,0-.036,0,.036.036,0,0,0-.022.033v5.64a.039.039,0,0,0,.04.036H103a3.075,3.075,0,0,0,3.044-2.757V143.406A.039.039,0,0,0,106,143.37Z" transform="translate(-92.339 -59.294)" fill="#0f549d"/>
    <path d="M214.285,143.37h-3.846c-1.916,0-3.153,1.108-3.153,2.823v2.886a.036.036,0,0,0,.023.033.044.044,0,0,0,.043-.005,2.6,2.6,0,0,1,1.549-.556h4.135v.681a14.254,14.254,0,0,0-2.377-.29,1.827,1.827,0,0,0-1.908,1.728v.033a1.827,1.827,0,0,0,1.908,1.728,13.691,13.691,0,0,0,2.377-.257v.615H208.9a2.317,2.317,0,0,1-1.546-.553.043.043,0,0,0-.044-.008.037.037,0,0,0-.025.034v5.972a.039.039,0,0,0,.04.037h3.955a3.075,3.075,0,0,0,3.044-2.757V143.406A.038.038,0,0,0,214.285,143.37Z" transform="translate(-193.409 -59.294)" fill="#b41f36"/>
    <g transform="translate(21.194 83.288)">
      <path d="M333.324,258.479a.04.04,0,0,0,.04.04h1.721a.883.883,0,1,0,0-1.765h-1.721a.04.04,0,0,0-.04.04Z" transform="translate(-332.115 -248.549)" fill="#329947"/>
      <path d="M323.62,143.37h-3.81a3.136,3.136,0,0,0-2.389.946h0a3.069,3.069,0,0,0-.8,2.07v2.664a.04.04,0,0,0,.04.04h4.615a1.169,1.169,0,0,1,0,2.337.04.04,0,1,0,0,.081,1.2,1.2,0,0,1,1.278,1.132,1.185,1.185,0,0,1-1.278,1.132H316.66a.04.04,0,0,0-.04.04v5.97a.04.04,0,0,0,.04.04h3.956a3.209,3.209,0,0,0,3.044-3.044V143.41A.04.04,0,0,0,323.62,143.37Z" transform="translate(-316.62 -143.37)" fill="#329947"/>
      <path d="M333.364,230.135h1.721a.857.857,0,0,0,.846-.846.917.917,0,0,0-.883-.883h-1.685a.04.04,0,0,0-.04.04v1.648A.04.04,0,0,0,333.364,230.135Z" transform="translate(-332.115 -222.253)" fill="#329947"/>
    </g>
  </g>
</svg>