<svg xmlns="http://www.w3.org/2000/svg" id="visa-svgrepo-com" width="37.44" height="24" viewBox="0 0 37.44 24">
  <path id="Path_928" data-name="Path 928" d="M1.92,0h33.6a1.92,1.92,0,0,1,1.92,1.92V22.08A1.92,1.92,0,0,1,35.52,24H1.92A1.92,1.92,0,0,1,0,22.08V1.92A1.92,1.92,0,0,1,1.92,0Z" fill=""/>
  <path id="Path_929" data-name="Path 929" d="M124.693,158.557l1.6-9.4h2.561l-1.6,9.4Zm11.813-9.194a6.615,6.615,0,0,0-2.3-.395c-2.531,0-4.314,1.274-4.329,3.1-.014,1.35,1.273,2.1,2.244,2.553,1,.461,1.332.754,1.327,1.166-.006.63-.8.918-1.532.918a5.369,5.369,0,0,1-2.411-.493l-.33-.149-.359,2.1a8.109,8.109,0,0,0,2.853.5c2.692,0,4.44-1.26,4.46-3.21.01-1.069-.673-1.882-2.15-2.553-.9-.435-1.443-.725-1.438-1.165,0-.391.464-.808,1.467-.808a4.727,4.727,0,0,1,1.917.36l.229.108.347-2.037m6.591-.2h-1.979a1.274,1.274,0,0,0-1.341.779l-3.8,8.611h2.689s.44-1.158.539-1.412l3.28,0c.077.329.312,1.408.312,1.408h2.377L143.1,149.16Zm-3.14,6.068c.212-.541,1.02-2.627,1.02-2.627-.015.025.21-.544.34-.9l.173.81s.491,2.243.593,2.713Zm-17.438-6.068-2.508,6.408-.267-1.3a7.333,7.333,0,0,0-3.547-3.942l2.293,8.218,2.71,0,4.032-9.379h-2.713" transform="translate(-110.62 -141.818)" fill="#fff"/>
  <path id="Path_930" data-name="Path 930" d="M64.361,152.956h-4.13l-.033.2a8.477,8.477,0,0,1,6.222,4.916l-.9-4.318a1.072,1.072,0,0,0-1.161-.793" transform="translate(-57.308 -145.614)" fill="#f2ae14"/>
</svg>