<svg xmlns="http://www.w3.org/2000/svg" width="37.44" height="24" viewBox="0 0 37.44 24">
  <g transform="translate(0 -0.001)">
    <path d="M1.92,0h33.6a1.92,1.92,0,0,1,1.92,1.92v20.16A1.92,1.92,0,0,1,35.52,24H1.92A1.92,1.92,0,0,1,0,22.081V1.921A1.92,1.92,0,0,1,1.92,0Z" fill="#2557d6"/>
    <path d="M.248,119.061h1.8l.405-.936h.907l.4.936H7.3v-.716l.316.719H9.449l.316-.73v.727h8.788l0-1.537h.17c.119,0,.154.015.154.2v1.334h4.545V118.7a3.732,3.732,0,0,0,1.687.358h1.912l.409-.936h.907l.4.936h3.685v-.89l.558.89h2.953v-5.88H33.007v.694l-.409-.694h-3v.694l-.376-.694h-4.05a3.773,3.773,0,0,0-1.755.343v-.343H20.623v.343a1.785,1.785,0,0,0-1.188-.343H9.223L8.538,114.7l-.7-1.519H4.618v.694l-.353-.694H1.522l-1.274,2.8v3.085h0Zm11.344-.848H10.514l0-3.3-1.525,3.3H8.062l-1.529-3.3v3.3H4.393l-.4-.94H1.8l-.408.94H.248L2.132,114H3.695l1.789,3.992V114H7.2l1.377,2.86L9.841,114h1.751v4.216ZM3.629,116.4l-.72-1.681L2.194,116.4Zm12.254,1.815H12.37V114h3.514v.878H13.422v.76h2.4v.864h-2.4v.842h2.462Zm4.952-3.081a1.189,1.189,0,0,1-.741,1.124,1.219,1.219,0,0,1,.52.355,1.172,1.172,0,0,1,.174.774v.828H19.728l0-.532a1.221,1.221,0,0,0-.166-.821,1.062,1.062,0,0,0-.767-.18H17.662v1.534H16.61V114h2.419a2.573,2.573,0,0,1,1.274.2.976.976,0,0,1,.532.934Zm-1.33.626a1.012,1.012,0,0,1-.52.087H17.708v-.936H19a1.122,1.122,0,0,1,.5.076.384.384,0,0,1,.221.373A.427.427,0,0,1,19.506,115.759Zm3.017,2.455H21.449V114h1.073Zm12.459,0H33.491L31.5,115.049v3.164H29.355l-.409-.94H26.761l-.4.94H25.132a2.276,2.276,0,0,1-1.525-.466,2.069,2.069,0,0,1-.562-1.61A1.883,1.883,0,0,1,25.21,114h1.018v.9h-1a1.041,1.041,0,0,0-.809.25,1.354,1.354,0,0,0-.3.955,1.42,1.42,0,0,0,.289.99,1.044,1.044,0,0,0,.733.217h.472L27.1,114h1.576l1.781,3.988V114h1.6l1.849,2.936V114h1.077v4.216ZM28.588,116.4l-.728-1.681-.724,1.681Zm9.074,8.548a1.674,1.674,0,0,1-1.427.539H34.2v-.9h2.023a.618.618,0,0,0,.426-.1.364.364,0,0,0,.124-.275.34.34,0,0,0-.128-.279.551.551,0,0,0-.371-.094c-.988-.032-2.22.029-2.22-1.305,0-.612.405-1.255,1.509-1.255h2.1v-.839H35.715a2.265,2.265,0,0,0-1.316.344v-.344H31.519a2.056,2.056,0,0,0-1.257.344v-.344H25.121v.344a2.832,2.832,0,0,0-1.418-.344H20.311v.344a2.482,2.482,0,0,0-1.483-.344h-3.8l-.869.9-.814-.9H7.68v5.884h5.563l.9-.915.843.915,3.429,0v-1.384h.337a3.717,3.717,0,0,0,1.465-.207v1.588h2.829v-1.534h.136c.174,0,.191.007.191.174v1.36h8.592a2.53,2.53,0,0,0,1.432-.377v.377h2.725a3.794,3.794,0,0,0,1.542-.271v-1.1Zm-17.037-2.263c0,1.171-.912,1.413-1.832,1.413H17.48v1.415H15.436l-1.3-1.4-1.346,1.4H8.628v-4.217h4.23l1.294,1.382,1.338-1.382h3.361C19.687,121.293,20.624,121.514,20.624,122.682Zm-8.363,1.941H9.676v-.839h2.309v-.86H9.676v-.767h2.637l1.151,1.229Zm4.167.483-1.615-1.718,1.615-1.663Zm2.388-1.875H17.458v-1.074h1.371c.38,0,.643.148.643.517S19.221,123.231,18.817,123.231Zm7.121-1.938h3.511v.872H26.986v.767h2.4v.86h-2.4v.839l2.463,0v.875H25.938v-4.217Zm-1.35,2.257a1.142,1.142,0,0,1,.515.354,1.187,1.187,0,0,1,.174.77v.836H24.222v-.528c0-.254.025-.629-.17-.826a1.053,1.053,0,0,0-.772-.187H22.156v1.54H21.1v-4.217h2.429a2.706,2.706,0,0,1,1.266.2.981.981,0,0,1,.541.937A1.183,1.183,0,0,1,24.589,123.55Zm-.594-.533a1.045,1.045,0,0,1-.519.087H22.2v-.947h1.3a1.077,1.077,0,0,1,.5.076.4.4,0,0,1,.218.379.45.45,0,0,1-.218.4Zm9.5.269a1.144,1.144,0,0,1,.315.893c0,.907-.591,1.331-1.652,1.331H30.1v-.9h2.04a.637.637,0,0,0,.43-.1.367.367,0,0,0,.124-.275.355.355,0,0,0-.128-.279.571.571,0,0,0-.375-.094c-.984-.032-2.216.029-2.216-1.305,0-.612.4-1.256,1.5-1.256h2.109v.9h-1.93a.738.738,0,0,0-.421.076.319.319,0,0,0-.158.3.324.324,0,0,0,.23.314,1.26,1.26,0,0,0,.409.048l.566.015a1.746,1.746,0,0,1,1.2.339Zm4.174-1.129H35.746a.755.755,0,0,0-.426.076.324.324,0,0,0-.154.3.32.32,0,0,0,.23.314,1.248,1.248,0,0,0,.405.048l.57.015a1.711,1.711,0,0,1,1.193.339.545.545,0,0,1,.1.1v-1.2Z" transform="translate(-0.236 -107.747)" fill="#fff"/>
  </g>
</svg>