<svg xmlns="http://www.w3.org/2000/svg" width="24.688" height="24.627" viewBox="0 0 24.688 24.627">
  <g id="_002-search" data-name="002-search" transform="translate(0.56 0.497)">
    <g id="Group_893" data-name="Group 893" transform="translate(0 0.003)">
      <path id="Path_932" data-name="Path 932" d="M15.26,0A8.363,8.363,0,0,0,9.008,13.926L6.35,16.584,5.665,15.9a.493.493,0,0,0-.7,0L.144,20.722a.493.493,0,0,0,0,.7l2.067,2.067a.493.493,0,0,0,.7,0l4.824-4.824a.493.493,0,0,0,0-.7l-.686-.686L9.7,14.622A8.366,8.366,0,1,0,15.26,0ZM2.56,22.442,1.189,21.071l4.128-4.128,1.371,1.371Zm12.7-6.688a7.384,7.384,0,1,1,7.384-7.384A7.342,7.342,0,0,1,15.26,15.755Z" transform="translate(0 -0.003)" fill="#0056a8" stroke="#0056a8" stroke-width="1"/>
    </g>
  </g>
</svg>
