<?xml version="1.0" encoding="utf-8"?>
<!-- Generator: Adobe Illustrator 24.1.1, SVG Export Plug-In . SVG Version: 6.00 Build 0)  -->
<svg version="1.1" id="Layer_10" xmlns="http://www.w3.org/2000/svg" xmlns:xlink="http://www.w3.org/1999/xlink" x="0px" y="0px"
	 viewBox="0 0 64 64" style="enable-background:new 0 0 64 64;" xml:space="preserve">
<path id="Pinterest_1_" d="M27.8,41.8c-1.6,8.3-3.5,16.3-9.3,20.5c-1.8-12.6,2.6-22.1,4.6-32.1c-3.5-5.8,0.4-17.6,7.7-14.7
	c9,3.6-7.8,21.7,3.5,24c11.8,2.4,16.6-20.4,9.3-27.9C33.2,0.9,13,11.4,15.5,26.7c0.6,3.7,4.5,4.9,1.5,10.1c-6.8-1.5-8.8-6.8-8.5-14
	C8.9,11.2,18.9,3.1,29,1.9c12.7-1.4,24.7,4.7,26.3,16.7c1.9,13.5-5.7,28.1-19.4,27.1C32.3,45.4,30.7,43.6,27.8,41.8"/>
</svg>
