<?xml version="1.0" encoding="utf-8"?>
<!-- Generator: Adobe Illustrator 24.1.1, SVG Export Plug-In . SVG Version: 6.00 Build 0)  -->
<svg version="1.1" id="Layer_10" xmlns="http://www.w3.org/2000/svg" xmlns:xlink="http://www.w3.org/1999/xlink" x="0px" y="0px"
	 viewBox="0 0 64 64" style="enable-background:new 0 0 64 64;" xml:space="preserve">
<path id="RSS_1_" d="M15.8,48.7c1.5,1.5,2.3,3.4,2.3,5.6s-0.9,4.2-2.3,5.6l0,0c-1.5,1.4-3.4,2.3-5.6,2.3S6,61.3,4.6,59.9
	c-1.4-1.4-2.3-3.4-2.3-5.6c0-2.2,0.9-4.2,2.3-5.6l0,0c1.5-1.4,3.4-2.3,5.6-2.3C12.4,46.3,14.4,47.2,15.8,48.7z M15.8,48.7L15.8,48.7
	L15.8,48.7L15.8,48.7z M4.6,59.9L4.6,59.9L4.6,59.9L4.6,59.9z M2.2,22.7v11.5c7.5,0,14.6,2.9,19.8,8.3c5.3,5.3,8.2,12.4,8.2,19.9
	l0,0v0h11.5c0-10.9-4.4-20.8-11.6-28C23,27.1,13.1,22.7,2.2,22.7z M2.3,2.3v11.5c26.7,0,48.5,21.8,48.5,48.6h11.5
	c0-16.5-6.7-31.5-17.6-42.4S18.8,2.3,2.3,2.3z"/>
</svg>
