<?xml version="1.0" encoding="utf-8"?>
<!-- Generator: Adobe Illustrator 24.2.1, SVG Export Plug-In . SVG Version: 6.00 Build 0)  -->
<svg version="1.1" id="Layer_10" xmlns="http://www.w3.org/2000/svg" xmlns:xlink="http://www.w3.org/1999/xlink" x="0px" y="0px"
	 viewBox="0 0 64 64" style="enable-background:new 0 0 64 64;" xml:space="preserve">
<path d="M61.4,56L47.1,40.9c7.6-9.2,7-22.8-1.3-31.6c-4.7-4.7-11.1-7.6-17.7-7.6c-6.3,0-12,2.2-16.8,6.6c-4.7,4.4-7.3,10.1-7.3,17.1
	c0,6.6,2.2,12.6,6.6,17.4c4.7,4.7,11.1,7.6,17.7,7.6c4.4,0,8.9-1.3,12.6-3.8l14.2,15.2c0.6,0.9,1.9,1.3,2.8,1.3
	c0.9,0,1.9-0.3,2.8-1.3c0.6-0.6,1.3-1.9,1.3-2.8C62.6,57.9,62,56.7,61.4,56z M28.1,42.1c-4.4,0-8.5-1.9-11.7-5.1S12,29.8,12,25.4
	s1.9-8.5,5.1-11.4c2.8-2.8,7-4.4,11.1-4.4c4.4,0,8.5,1.9,11.7,5.1s4.4,7.3,4.4,11.7c0,4.4-1.9,8.5-5.1,11.4
	C36.1,40.5,32.3,42.1,28.1,42.1z"/>
</svg>
