<?xml version="1.0" encoding="utf-8"?>
<!-- Generator: Adobe Illustrator 25.2.1, SVG Export Plug-In . SVG Version: 6.00 Build 0)  -->
<svg version="1.1" id="Layer_10" xmlns="http://www.w3.org/2000/svg" xmlns:xlink="http://www.w3.org/1999/xlink" x="0px" y="0px"
	 viewBox="0 0 64 64" style="enable-background:new 0 0 64 64;" xml:space="preserve">
<path d="M58.5,60c-1.3,1.2-3.4,1.2-4.6-0.2L40.5,45.8l-0.7,0.5c-3.5,2.3-7.7,3.6-12,3.6c-6.2,0-12.3-2.7-17-7.3
	c-4.1-4.5-6.3-10.3-6.3-16.7c0-6.5,2.3-12,7-16.4c4.6-4.2,10-6.3,16.1-6.3c6.2,0,12.3,2.7,17,7.3c8,8.4,8.5,21.5,1.2,30.3l-0.6,0.7
	l13.4,13.9C59.9,56.6,59.8,58.7,58.5,60L58.5,60z M27.7,9.1c-4.5,0-8.9,1.8-11.8,4.7c-3.4,3.1-5.4,7.5-5.4,12.1
	c0,5.1,1.5,9.1,4.7,12.3c3.5,3.5,7.9,5.4,12.4,5.4c4.3,0,8.3-1.6,11.8-4.5c3.5-3.1,5.4-7.6,5.4-12.2c0-5.1-1.6-9.3-4.7-12.4
	C36.6,11,32.2,9.1,27.7,9.1z"/>
</svg>
