<svg t="1633680888364" class="icon" viewBox="0 0 1024 1024" version="1.1" xmlns="http://www.w3.org/2000/svg" p-id="5807" width="17" height="17" xmlns:xlink="http://www.w3.org/1999/xlink"><path d="M781.69183326 208.58123803H242.36749291c-9.3092649 0-17.22930884 3.29754663-23.84417772 9.88769507-6.57531762 6.59509253-9.87780761 14.52502465-9.87780761 23.79473901v370.83801222c0 9.37847924 3.30743408 17.30841065 9.87780761 23.90350389 6.61486816 6.59014916 14.53491211 9.88769508 23.84417772 9.88769508h101.13629151v105.07159448l146.9311521-105.07159448h291.27667236c9.31420898 0 17.23425293-3.29754663 23.85900855-9.88769508 6.57037354-6.59509253 9.87780761-14.52502465 9.87780763-23.8985598V242.26367211c0-9.27465844-3.31237817-17.20458984-9.87780763-23.79968309-6.62475562-6.59014916-14.54479957-9.88769508-23.85900855-9.88769508h-0.01977562zM242.34771729 141.21142578h539.32434106c27.89318824 0 51.74725342 9.78881836 71.50286865 29.56420922 19.74572778 19.77539086 29.61364722 43.57507324 29.61364722 71.48803711v370.83801222c0 27.91790796-9.86792016 51.81646704-29.61364722 71.49298119-19.75561523 19.77539086-43.60968041 29.66308594-71.50286865 29.66308594h-269.68688989L276.049927 882.78857422v-168.52587867h-33.70220971c-27.91296386 0-51.74725342-9.88769508-71.50286866-29.66308594C151.08923339 664.9181521 141.21142578 641.0146482 141.21142578 613.10168433V242.26367211C141.21142578 214.34576416 151.08923339 190.55102516 170.84484863 170.775635 190.60046386 151.00024414 214.43475342 141.21142578 242.34771729 141.21142578z" p-id="5808" fill="#2c2c2c"></path></svg>