<?xml version="1.0" encoding="utf-8"?>
<!-- Generator: Adobe Illustrator 24.1.1, SVG Export Plug-In . SVG Version: 6.00 Build 0)  -->
<svg version="1.1" id="Layer_10" xmlns="http://www.w3.org/2000/svg" xmlns:xlink="http://www.w3.org/1999/xlink" x="0px" y="0px"
	 viewBox="0 0 64 64" style="enable-background:new 0 0 64 64;" xml:space="preserve">
<path id="Tumblr_1_" d="M37.7,51c-1-0.6-1.9-1.6-2.3-2.6c-0.4-1-0.3-3-0.3-6.5V26.6H49V15.9H35V2.1h-8.6c-0.4,3.1-1.1,5.6-2.1,7.6
	c-1,2-2.4,3.7-4.1,5.1c-1.7,1.4-4.4,2.5-6.8,3.3v8.5h8.2v21c0,2.7,0.3,4.8,0.9,6.3c0.6,1.4,1.6,2.8,3.1,4.1c1.5,1.3,3.3,2.3,5.4,3
	c2.1,0.7,3.8,1,6.5,1c2.4,0,4.7-0.2,6.8-0.7c2.1-0.5,4.4-1.3,7-2.5v-9.4c-3,2-6.1,3-9.1,3C40.5,52.2,39,51.8,37.7,51z"/>
</svg>
