<svg xmlns="http://www.w3.org/2000/svg" xmlns:xlink="http://www.w3.org/1999/xlink" width="46" height="46" viewBox="0 0 46 46">
  <defs>
    <clipPath id="clip-path">
      <circle id="Ellipse_2" data-name="Ellipse 2" cx="23" cy="23" r="23" transform="translate(936 4919)" fill="#fff" stroke="#707070" stroke-width="1"/>
    </clipPath>
  </defs>
  <g id="Mask_Group_2" data-name="Mask Group 2" transform="translate(-936 -4919)" clip-path="url(#clip-path)">
    <g id="twitter" transform="translate(936 4919)">
      <circle id="Ellipse_5" data-name="Ellipse 5" cx="23" cy="23" r="23" transform="translate(0 0)" fill="#55acee"/>
      <g id="Group_74" data-name="Group 74">
        <path id="Path_47" data-name="Path 47" d="M37.089,16.529a10.969,10.969,0,0,1-3.158.865,5.513,5.513,0,0,0,2.418-3.041,11.006,11.006,0,0,1-3.491,1.334A5.5,5.5,0,0,0,23.489,20.7a15.606,15.606,0,0,1-11.332-5.745,5.5,5.5,0,0,0,1.7,7.34,5.459,5.459,0,0,1-2.49-.688c0,.023,0,.047,0,.07a5.5,5.5,0,0,0,4.41,5.39,5.519,5.519,0,0,1-2.483.1,5.5,5.5,0,0,0,5.136,3.818,11.1,11.1,0,0,1-8.139,2.276A15.634,15.634,0,0,0,34.361,20.086c0-.238-.005-.476-.016-.711a11.148,11.148,0,0,0,2.744-2.845Z" fill="#f1f2f2"/>
      </g>
    </g>
  </g>
</svg>
