<?xml version="1.0" encoding="utf-8"?>
<!-- Generator: Adobe Illustrator 24.1.1, SVG Export Plug-In . SVG Version: 6.00 Build 0)  -->
<svg version="1.1" id="Layer_10" xmlns="http://www.w3.org/2000/svg" xmlns:xlink="http://www.w3.org/1999/xlink" x="0px" y="0px"
	 viewBox="0 0 64 64" style="enable-background:new 0 0 64 64;" xml:space="preserve">
<path id="Twitter_2_" d="M62.1,13.4c-2.2,1-4.6,1.6-7.1,1.9c2.5-1.5,4.5-3.9,5.4-6.8c-2.4,1.4-5,2.4-7.8,3c-2.3-2.4-5.4-3.9-9-3.9
	c-6.8,0-12.3,5.5-12.3,12.3c0,1,0.1,1.9,0.3,2.8C21.4,22.2,12.3,17.3,6.2,9.9c-1.1,1.8-1.7,3.9-1.7,6.2c0,4.3,2.2,8,5.5,10.3
	c-2-0.1-3.9-0.6-5.6-1.5c0,0.1,0,0.1,0,0.1c0,6,4.3,11,9.9,12.1c-1,0.3-2.1,0.4-3.2,0.4c-0.8,0-1.6-0.1-2.3-0.2
	c1.6,4.9,6.1,8.5,11.5,8.6c-4.2,3.3-9.5,5.3-15.3,5.3c-1,0-2-0.1-2.9-0.2c5.5,3.5,11.9,5.5,18.9,5.5C43.6,56.4,56,37.6,56,21.3
	c0-0.5,0-1.1,0-1.6C58.4,18,60.5,15.8,62.1,13.4z"/>
</svg>
