<?xml version="1.0" encoding="utf-8"?>
<!-- Generator: Adobe Illustrator 25.2.1, SVG Export Plug-In . SVG Version: 6.00 Build 0)  -->
<svg version="1.1" id="Layer_10" xmlns="http://www.w3.org/2000/svg" xmlns:xlink="http://www.w3.org/1999/xlink" x="0px" y="0px"
	 viewBox="0 0 64 64" style="enable-background:new 0 0 64 64;" xml:space="preserve">
<path d="M43.2,36.9c4.6-3.3,7.8-8.6,8.1-14.7C51.8,12,43.8,2.9,33.6,2.1c-11.3-0.9-20.9,8-20.9,19.1c0,6.5,3.2,12.2,8.1,15.7
	c-8.5,3.9-14.8,12-16,21.6c-0.2,1.8,1.2,3.4,3,3.4h0c1.5,0,2.8-1.1,3-2.6C12,48.8,21.1,40.5,32,40.5s20,8.2,21.2,18.8
	c0.2,1.5,1.5,2.6,3,2.6h0c1.8,0,3.2-1.6,3-3.4C58,48.9,51.7,40.8,43.2,36.9z M32,8c7.3,0,13.3,6,13.3,13.3s-6,13.3-13.3,13.3
	s-13.3-6-13.3-13.3S24.7,8,32,8z"/>
</svg>
