<?xml version="1.0" encoding="utf-8"?>
<!-- Generator: Adobe Illustrator 25.2.1, SVG Export Plug-In . SVG Version: 6.00 Build 0)  -->
<svg version="1.1" id="Layer_10" xmlns="http://www.w3.org/2000/svg" xmlns:xlink="http://www.w3.org/1999/xlink" x="0px" y="0px"
	 viewBox="0 0 64 64" style="enable-background:new 0 0 64 64;" xml:space="preserve">
<path d="M56.2,60.9c-1,0-1.9-0.7-2-1.7C52.9,48.1,43.4,39.5,32,39.5c-11.4,0-20.9,8.6-22.2,19.7c-0.1,1-1,1.7-2,1.7h0
	c-1.2,0-2.1-1-2-2.2c1.1-9,6.9-17,15.4-20.9l1.6-0.7l-1.4-1c-4.8-3.4-7.7-9-7.7-14.9c0-10,8.2-18.2,18.3-18.2
	c10.1,0,18.3,8.2,18.3,18.2c0,5.9-2.9,11.5-7.7,14.9l-1.4,1l1.6,0.7c8.5,3.8,14.3,11.8,15.4,20.9C58.3,59.9,57.4,60.9,56.2,60.9
	L56.2,60.9z M33.9,7.2c-9.3-1.2-17.2,6.7-16,16c0.8,6.4,6,11.5,12.3,12.3c9.3,1.2,17.2-6.7,16-16C45.4,13.1,40.2,8,33.9,7.2z"/>
</svg>
