<svg xmlns="http://www.w3.org/2000/svg" width="21.854" height="24.982" viewBox="0 0 21.854 24.982">
  <g id="_001-user" data-name="001-user" transform="translate(-31.5 0.5)">
    <g id="Group_892" data-name="Group 892" transform="translate(32)">
      <path id="Path_931" data-name="Path 931" d="M45.2,11.856a6.256,6.256,0,1,0-5.547,0A10.437,10.437,0,0,0,32,21.9v1.564a.521.521,0,1,0,1.043,0V21.9a9.384,9.384,0,1,1,18.769,0v1.564a.521.521,0,1,0,1.043,0V21.9A10.437,10.437,0,0,0,45.2,11.856Zm-7.987-5.6a5.214,5.214,0,1,1,5.214,5.214A5.22,5.22,0,0,1,37.214,6.256Z" transform="translate(-32)" fill="#0056a8" stroke="#0056a8" stroke-width="1"/>
    </g>
  </g>
</svg>
