<?xml version="1.0" encoding="utf-8"?>
<!-- Generator: Adobe Illustrator 24.3.0, SVG Export Plug-In . SVG Version: 6.00 Build 0)  -->
<svg version="1.1" id="Layer_10" xmlns="http://www.w3.org/2000/svg" xmlns:xlink="http://www.w3.org/1999/xlink" x="0px" y="0px"
	 viewBox="0 0 64 64" style="enable-background:new 0 0 64 64;" xml:space="preserve">
<g>
	<path d="M36.9,42.4c-0.9,0-1.6,0.6-1.6,1.3v9.7c0,0.7,0.7,1.3,1.6,1.3c0.9,0,1.6-0.6,1.6-1.3v-9.7C38.4,43,37.7,42.4,36.9,42.4z"/>
	<path d="M26.2,14v4.6c0,1.5,0,2.6,0.2,3.4c0.2,0.7,0.4,1.4,0.8,1.9c0.4,0.5,0.9,0.9,1.5,1.2c0.6,0.3,1.4,0.4,2.3,0.4
		c0.8,0,1.6-0.2,2.2-0.5c0.7-0.3,1.2-0.8,1.6-1.4c0.4-0.7,0.7-1.4,0.8-2.1c0.1-0.7,0.2-1.9,0.2-3.5v-4.4c0-1.2-0.1-2.2-0.2-2.8
		c-0.1-0.6-0.3-1.2-0.7-1.8c-0.4-0.5-0.9-1-1.6-1.4c-0.7-0.3-1.5-0.5-2.4-0.5c-1.1,0-2,0.2-2.7,0.8c-0.7,0.5-1.2,1.3-1.5,2.2
		C26.4,11.1,26.3,12.4,26.2,14L26.2,14z M29.5,11.7c0-1,0.7-1.8,1.6-1.8c0.9,0,1.6,0.8,1.6,1.8v9.1c0,1-0.7,1.8-1.6,1.8
		c-0.9,0-1.6-0.8-1.6-1.8V11.7z"/>
	<path d="M38.5,23.7c0.2,0.5,0.5,0.8,0.9,1.1c0.4,0.3,0.9,0.4,1.5,0.4c0.5,0,1-0.1,1.4-0.4c0.4-0.3,0.7-0.7,1-1.3l-0.1,1.4h4V7.8H44
		v13.4c0,0.7-0.6,1.3-1.3,1.3s-1.3-0.6-1.3-1.3V7.8h-3.3v11.6c0,1.5,0,2.5,0.1,3C38.2,22.8,38.4,23.3,38.5,23.7z"/>
	<path d="M49.7,44.7c0-0.9-0.7-1.6-1.6-1.6h-0.2c-0.9,0-1.6,0.7-1.6,1.6v2h3.4V44.7z"/>
	<polygon points="18.3,25.4 22.1,25.4 22.1,12.2 26.6,1 22.4,1 20,9.4 17.6,1 13.5,1 18.3,12.3 	"/>
	<path d="M49.2,29h-35c-4.7,0-8.5,3.6-8.5,8v18.4c0,4.4,3.8,8,8.5,8h35c4.7,0,8.5-3.6,8.5-8V37C57.7,32.6,53.9,29,49.2,29z
		 M16.5,57.4L16.5,57.4l-3.7,0.1V38H9.2v-2.9h11.6V38h-4.3V57.4z M29.6,57.5h-2.9v-2.1c-0.8,1.7-3.9,3.1-5.5,1.9
		c-0.8-0.7-0.8-1.8-0.9-2.7c0-0.6,0-1.7,0-3.3V41h3.6v10.4c0,1.4-0.1,2.2,0,2.5c0.5,1.6,1.8,0.7,2.1-0.1c0.1-0.3,0-1,0-2.5V40.9h3.6
		V57.5z M41.1,52.8c0,4.1-2.3,6.5-6.1,3.1l-0.3,1.4h-3V35.2h3.6v6.4c3.3-2.7,5.8-0.7,5.8,2.6V52.8z M43.3,51.4v-5.1
		c0-1.5,0.2-2.7,0.5-3.6c0.3-0.8,0.8-1.5,1.5-2c2.2-1.6,6.6-1.1,7,2c0.2,1,0.2,2.7,0.2,4.4v2.3h-6.2v2.2v1.7v0.2
		c0,0.8,0.7,1.5,1.5,1.5h0.5c0.8,0,1.5-0.7,1.5-1.5V52c0-0.2,0-0.3,0-0.4h2.7C53.7,59,43.3,60.2,43.3,51.4z"/>
</g>
</svg>
