<svg xmlns="http://www.w3.org/2000/svg" xmlns:xlink="http://www.w3.org/1999/xlink" width="46" height="46" viewBox="0 0 46 46">
  <defs>
    <clipPath id="clip-path">
      <circle id="Ellipse_3" data-name="Ellipse 3" cx="23" cy="23" r="23" transform="translate(1039 4919)" fill="#fff" stroke="#707070" stroke-width="1"/>
    </clipPath>
  </defs>
  <g id="Mask_Group_3" data-name="Mask Group 3" transform="translate(-1039 -4919)" clip-path="url(#clip-path)">
    <g id="youtube" transform="translate(1038 4925.896)">
      <path id="Path_48" data-name="Path 48" d="M67.927,7.6a8.689,8.689,0,0,0-6.113-6.113C56.387,0,34.678,0,34.678,0S12.968,0,7.541,1.429A8.867,8.867,0,0,0,1.428,7.6C0,13.025,0,24.28,0,24.28S0,35.592,1.428,40.962a8.691,8.691,0,0,0,6.113,6.113c5.484,1.485,27.137,1.485,27.137,1.485s21.709,0,27.137-1.429a8.689,8.689,0,0,0,6.113-6.113c1.428-5.427,1.428-16.682,1.428-16.682S69.413,13.025,67.927,7.6Zm0,0" transform="translate(-11 -7.896)" fill="red"/>
      <path id="Path_49" data-name="Path 49" d="M18.415,23.575l12.472-7.184L18.415,9.208Zm0,0" transform="translate(1.226 0.713)" fill="#fff"/>
    </g>
  </g>
</svg>
